# Tiled2Unity generated file. Do not modify by hand.
# Wavefront file for 'OfTheNightFighterMap_mesh_0003.obj'

# Vertices (Count = 384)
v -38 -32 0
v -39 -32 0
v -39 -31 0
v -38 -31 0
v -39 -32 0
v -40 -32 0
v -40 -31 0
v -39 -31 0
v -40 -32 0
v -41 -32 0
v -41 -31 0
v -40 -31 0
v -41 -32 0
v -42 -32 0
v -42 -31 0
v -41 -31 0
v -38 -33 0
v -39 -33 0
v -39 -32 0
v -38 -32 0
v -39 -33 0
v -40 -33 0
v -40 -32 0
v -39 -32 0
v -40 -33 0
v -41 -33 0
v -41 -32 0
v -40 -32 0
v -41 -33 0
v -42 -33 0
v -42 -32 0
v -41 -32 0
v -39 -35 0
v -40 -35 0
v -40 -34 0
v -39 -34 0
v -40 -35 0
v -41 -35 0
v -41 -34 0
v -40 -34 0
v -39 -36 0
v -40 -36 0
v -40 -35 0
v -39 -35 0
v -40 -36 0
v -41 -36 0
v -41 -35 0
v -40 -35 0
v -38 -38 0
v -39 -38 0
v -39 -37 0
v -38 -37 0
v -39 -38 0
v -40 -38 0
v -40 -37 0
v -39 -37 0
v -40 -38 0
v -41 -38 0
v -41 -37 0
v -40 -37 0
v -58 -38 0
v -59 -38 0
v -59 -37 0
v -58 -37 0
v -59 -38 0
v -60 -38 0
v -60 -37 0
v -59 -37 0
v -60 -38 0
v -61 -38 0
v -61 -37 0
v -60 -37 0
v -51 -39 0
v -52 -39 0
v -52 -38 0
v -51 -38 0
v -58 -39 0
v -59 -39 0
v -59 -38 0
v -58 -38 0
v -59 -39 0
v -60 -39 0
v -60 -38 0
v -59 -38 0
v -60 -39 0
v -61 -39 0
v -61 -38 0
v -60 -38 0
v -61 -39 0
v -62 -39 0
v -62 -38 0
v -61 -38 0
v -62 -39 0
v -63 -39 0
v -63 -38 0
v -62 -38 0
v -63 -39 0
v -64 -39 0
v -64 -38 0
v -63 -38 0
v -59 -40 0
v -60 -40 0
v -60 -39 0
v -59 -39 0
v -60 -40 0
v -61 -40 0
v -61 -39 0
v -60 -39 0
v -61 -40 0
v -62 -40 0
v -62 -39 0
v -61 -39 0
v -62 -40 0
v -63 -40 0
v -63 -39 0
v -62 -39 0
v -63 -40 0
v -64 -40 0
v -64 -39 0
v -63 -39 0
v -59 -41 0
v -60 -41 0
v -60 -40 0
v -59 -40 0
v -60 -41 0
v -61 -41 0
v -61 -40 0
v -60 -40 0
v -62 -41 0
v -63 -41 0
v -63 -40 0
v -62 -40 0
v -63 -41 0
v -64 -41 0
v -64 -40 0
v -63 -40 0
v -31 -43 0
v -32 -43 0
v -32 -42 0
v -31 -42 0
v -34 -43 0
v -35 -43 0
v -35 -42 0
v -34 -42 0
v -35 -43 0
v -36 -43 0
v -36 -42 0
v -35 -42 0
v -69 -43 0
v -70 -43 0
v -70 -42 0
v -69 -42 0
v -72 -43 0
v -73 -43 0
v -73 -42 0
v -72 -42 0
v -27 -44 0
v -28 -44 0
v -28 -43 0
v -27 -43 0
v -28 -44 0
v -29 -44 0
v -29 -43 0
v -28 -43 0
v -31 -44 0
v -32 -44 0
v -32 -43 0
v -31 -43 0
v -32 -44 0
v -33 -44 0
v -33 -43 0
v -32 -43 0
v -33 -44 0
v -34 -44 0
v -34 -43 0
v -33 -43 0
v -34 -44 0
v -35 -44 0
v -35 -43 0
v -34 -43 0
v -35 -44 0
v -36 -44 0
v -36 -43 0
v -35 -43 0
v -41 -44 0
v -42 -44 0
v -42 -43 0
v -41 -43 0
v -59 -44 0
v -60 -44 0
v -60 -43 0
v -59 -43 0
v -60 -44 0
v -61 -44 0
v -61 -43 0
v -60 -43 0
v -61 -44 0
v -62 -44 0
v -62 -43 0
v -61 -43 0
v -27 -45 0
v -28 -45 0
v -28 -44 0
v -27 -44 0
v -28 -45 0
v -29 -45 0
v -29 -44 0
v -28 -44 0
v -29 -45 0
v -30 -45 0
v -30 -44 0
v -29 -44 0
v -30 -45 0
v -31 -45 0
v -31 -44 0
v -30 -44 0
v -31 -45 0
v -32 -45 0
v -32 -44 0
v -31 -44 0
v -32 -45 0
v -33 -45 0
v -33 -44 0
v -32 -44 0
v -33 -45 0
v -34 -45 0
v -34 -44 0
v -33 -44 0
v -34 -45 0
v -35 -45 0
v -35 -44 0
v -34 -44 0
v -27 -46 0
v -28 -46 0
v -28 -45 0
v -27 -45 0
v -28 -46 0
v -29 -46 0
v -29 -45 0
v -28 -45 0
v -29 -46 0
v -30 -46 0
v -30 -45 0
v -29 -45 0
v -30 -46 0
v -31 -46 0
v -31 -45 0
v -30 -45 0
v -31 -46 0
v -32 -46 0
v -32 -45 0
v -31 -45 0
v -32 -46 0
v -33 -46 0
v -33 -45 0
v -32 -45 0
v -32 -47 0
v -33 -47 0
v -33 -46 0
v -32 -46 0
v -33 -47 0
v -34 -47 0
v -34 -46 0
v -33 -46 0
v -32 -48 0
v -33 -48 0
v -33 -47 0
v -32 -47 0
v -33 -48 0
v -34 -48 0
v -34 -47 0
v -33 -47 0
v -49 -48 0
v -50 -48 0
v -50 -47 0
v -49 -47 0
v -50 -48 0
v -51 -48 0
v -51 -47 0
v -50 -47 0
v -72 -48 0
v -73 -48 0
v -73 -47 0
v -72 -47 0
v -26 -50 0
v -27 -50 0
v -27 -49 0
v -26 -49 0
v -41 -50 0
v -42 -50 0
v -42 -49 0
v -41 -49 0
v -42 -50 0
v -43 -50 0
v -43 -49 0
v -42 -49 0
v -43 -50 0
v -44 -50 0
v -44 -49 0
v -43 -49 0
v -60 -50 0
v -61 -50 0
v -61 -49 0
v -60 -49 0
v -74 -50 0
v -75 -50 0
v -75 -49 0
v -74 -49 0
v -28 -52 0
v -29 -52 0
v -29 -51 0
v -28 -51 0
v -29 -52 0
v -30 -52 0
v -30 -51 0
v -29 -51 0
v -30 -52 0
v -31 -52 0
v -31 -51 0
v -30 -51 0
v -68 -52 0
v -69 -52 0
v -69 -51 0
v -68 -51 0
v -69 -52 0
v -70 -52 0
v -70 -51 0
v -69 -51 0
v -68 -53 0
v -69 -53 0
v -69 -52 0
v -68 -52 0
v -69 -53 0
v -70 -53 0
v -70 -52 0
v -69 -52 0
v -70 -53 0
v -71 -53 0
v -71 -52 0
v -70 -52 0
v -69 -54 0
v -70 -54 0
v -70 -53 0
v -69 -53 0
v -70 -54 0
v -71 -54 0
v -71 -53 0
v -70 -53 0
v -70 -56 0
v -71 -56 0
v -71 -55 0
v -70 -55 0
v -71 -56 0
v -72 -56 0
v -72 -55 0
v -71 -55 0
v -70 -57 0
v -71 -57 0
v -71 -56 0
v -70 -56 0
v -71 -57 0
v -72 -57 0
v -72 -56 0
v -71 -56 0
v -69 -59 0
v -70 -59 0
v -70 -58 0
v -69 -58 0
v -70 -59 0
v -71 -59 0
v -71 -58 0
v -70 -58 0
v -71 -59 0
v -72 -59 0
v -72 -58 0
v -71 -58 0
v -72 -59 0
v -73 -59 0
v -73 -58 0
v -72 -58 0
v -73 -59 0
v -74 -59 0
v -74 -58 0
v -73 -58 0

# Texture cooridinates (Count = 43)
vt 0.1176471 0.875
vt 0.05882353 0.875
vt 0.05882353 1
vt 0.1176471 1
vt 0 0.875
vt 0 1
vt 0.1176471 0.75
vt 0.05882353 0.75
vt 0 0.75
vt 0.9411765 0.25
vt 1 0.25
vt 1 0.375
vt 0.9411765 0.375
vt 0.6470588 0.5
vt 0.7058824 0.5
vt 0.7058824 0.625
vt 0.6470588 0.625
vt 1 0.125
vt 0.9411765 0.125
vt 0.5882353 0.875
vt 0.6470588 0.875
vt 0.6470588 1
vt 0.5882353 1
vt 0.7058824 0.875
vt 0.7058824 1
vt 0.7647059 0.875
vt 0.7647059 1
vt 0.7058824 0.75
vt 0.7647059 0.75
vt 0.6470588 0.75
vt 0.4117647 0.75
vt 0.4117647 0.875
vt 0.4705882 0.875
vt 0.4705882 0.75
vt 0.5882353 0.75
vt 0.8823529 0.125
vt 0.8823529 0.25
vt 0.5294118 0.75
vt 0.5294118 0.875
vt 0.8235294 0.125
vt 0.8235294 0.25
vt 0.8235294 0.375
vt 0.8823529 0.375

# Normal
vn 0 0 -1

# Mesh description
g OfTheNightFighterMap_mesh_0003

# Faces
f 1/1/1 2/2/1 3/3/1 4/4/1
f 5/2/1 6/5/1 7/6/1 8/3/1
f 9/5/1 10/2/1 11/3/1 12/6/1
f 13/2/1 14/1/1 15/4/1 16/3/1
f 17/7/1 18/8/1 19/2/1 20/1/1
f 21/8/1 22/9/1 23/5/1 24/2/1
f 25/9/1 26/8/1 27/2/1 28/5/1
f 29/8/1 30/7/1 31/1/1 32/2/1
f 33/1/1 34/2/1 35/3/1 36/4/1
f 37/2/1 38/5/1 39/6/1 40/3/1
f 41/7/1 42/8/1 43/2/1 44/1/1
f 45/8/1 46/9/1 47/5/1 48/2/1
f 49/10/1 50/11/1 51/12/1 52/13/1
f 53/14/1 54/15/1 55/16/1 56/17/1
f 57/14/1 58/15/1 59/16/1 60/17/1
f 61/1/1 62/2/1 63/3/1 64/4/1
f 65/2/1 66/5/1 67/6/1 68/3/1
f 69/10/1 70/11/1 71/12/1 72/13/1
f 73/18/1 74/19/1 75/10/1 76/11/1
f 77/7/1 78/8/1 79/2/1 80/1/1
f 81/20/1 82/21/1 83/22/1 84/23/1
f 85/21/1 86/24/1 87/25/1 88/22/1
f 89/21/1 90/24/1 91/25/1 92/22/1
f 93/21/1 94/24/1 95/25/1 96/22/1
f 97/24/1 98/26/1 99/27/1 100/25/1
f 101/26/1 102/24/1 103/28/1 104/29/1
f 105/24/1 106/21/1 107/30/1 108/28/1
f 109/29/1 110/26/1 111/24/1 112/28/1
f 113/31/1 114/32/1 115/33/1 116/34/1
f 117/21/1 118/20/1 119/35/1 120/30/1
f 121/27/1 122/25/1 123/24/1 124/26/1
f 125/22/1 126/23/1 127/20/1 128/21/1
f 129/27/1 130/25/1 131/24/1 132/26/1
f 133/22/1 134/23/1 135/20/1 136/21/1
f 137/19/1 138/36/1 139/37/1 140/10/1
f 141/5/1 142/2/1 143/3/1 144/6/1
f 145/2/1 146/1/1 147/4/1 148/3/1
f 149/14/1 150/15/1 151/16/1 152/17/1
f 153/14/1 154/15/1 155/16/1 156/17/1
f 157/20/1 158/21/1 159/22/1 160/23/1
f 161/24/1 162/26/1 163/27/1 164/25/1
f 165/34/1 166/38/1 167/39/1 168/33/1
f 169/38/1 170/35/1 171/20/1 172/39/1
f 173/5/1 174/2/1 175/3/1 176/6/1
f 177/2/1 178/1/1 179/4/1 180/3/1
f 181/8/1 182/7/1 183/1/1 184/2/1
f 185/40/1 186/36/1 187/37/1 188/41/1
f 189/14/1 190/15/1 191/16/1 192/17/1
f 193/14/1 194/15/1 195/16/1 196/17/1
f 197/36/1 198/40/1 199/41/1 200/37/1
f 201/35/1 202/30/1 203/21/1 204/20/1
f 205/34/1 206/31/1 207/32/1 208/33/1
f 209/24/1 210/28/1 211/29/1 212/26/1
f 213/24/1 214/28/1 215/29/1 216/26/1
f 217/30/1 218/28/1 219/24/1 220/21/1
f 221/28/1 222/29/1 223/26/1 224/24/1
f 225/9/1 226/8/1 227/2/1 228/5/1
f 229/8/1 230/7/1 231/1/1 232/2/1
f 233/27/1 234/25/1 235/24/1 236/26/1
f 237/25/1 238/22/1 239/21/1 240/24/1
f 241/25/1 242/22/1 243/21/1 244/24/1
f 245/25/1 246/22/1 247/21/1 248/24/1
f 249/25/1 250/22/1 251/21/1 252/24/1
f 253/22/1 254/23/1 255/20/1 256/21/1
f 257/5/1 258/2/1 259/3/1 260/6/1
f 261/2/1 262/1/1 263/4/1 264/3/1
f 265/9/1 266/8/1 267/2/1 268/5/1
f 269/8/1 270/7/1 271/1/1 272/2/1
f 273/14/1 274/15/1 275/16/1 276/17/1
f 277/14/1 278/15/1 279/16/1 280/17/1
f 281/11/1 282/10/1 283/13/1 284/12/1
f 285/14/1 286/15/1 287/16/1 288/17/1
f 289/14/1 290/15/1 291/16/1 292/17/1
f 293/14/1 294/15/1 295/16/1 296/17/1
f 297/37/1 298/41/1 299/42/1 300/43/1
f 301/37/1 302/10/1 303/13/1 304/43/1
f 305/14/1 306/15/1 307/16/1 308/17/1
f 309/14/1 310/15/1 311/16/1 312/17/1
f 313/14/1 314/15/1 315/16/1 316/17/1
f 317/14/1 318/15/1 319/16/1 320/17/1
f 321/1/1 322/2/1 323/3/1 324/4/1
f 325/2/1 326/5/1 327/6/1 328/3/1
f 329/7/1 330/8/1 331/2/1 332/1/1
f 333/5/1 334/2/1 335/3/1 336/6/1
f 337/2/1 338/1/1 339/4/1 340/3/1
f 341/9/1 342/8/1 343/2/1 344/5/1
f 345/8/1 346/7/1 347/1/1 348/2/1
f 349/1/1 350/2/1 351/3/1 352/4/1
f 353/2/1 354/5/1 355/6/1 356/3/1
f 357/7/1 358/8/1 359/2/1 360/1/1
f 361/8/1 362/9/1 363/5/1 364/2/1
f 365/14/1 366/15/1 367/16/1 368/17/1
f 369/14/1 370/15/1 371/16/1 372/17/1
f 373/14/1 374/15/1 375/16/1 376/17/1
f 377/14/1 378/15/1 379/16/1 380/17/1
f 381/37/1 382/10/1 383/13/1 384/43/1

